<?xml version="1.0" encoding="utf-8"?>
<!-- Generator: Adobe Illustrator 26.5.0, SVG Export Plug-In . SVG Version: 6.00 Build 0)  -->
<svg version="1.1" id="Layer_1" xmlns="http://www.w3.org/2000/svg" xmlns:xlink="http://www.w3.org/1999/xlink" x="0px" y="0px"
	 viewBox="0 0 384.36 195.39" style="enable-background:new 0 0 384.36 195.39;" xml:space="preserve">
<style type="text/css">
	.st0{fill:#F2ECE9;}
</style>
<g>
	<path class="st0" d="M97.63,50.42c0-26.11-21.16-47.28-47.27-47.28S3.09,24.31,3.09,50.42h47.28V97.7
		C76.47,97.7,97.63,76.53,97.63,50.42z"/>
	<path class="st0" d="M50.36,97.7v47.28H3.09c0,26.11,21.17,47.28,47.28,47.28s47.27-21.17,47.27-47.28
		C97.63,118.86,76.47,97.7,50.36,97.7z"/>
	<path class="st0" d="M144.91,97.7V50.42h47.27c0-26.11-21.16-47.28-47.27-47.28c-26.11,0-47.28,21.17-47.28,47.28
		S118.8,97.7,144.91,97.7z"/>
	<path class="st0" d="M144.91,97.7v47.28H97.63c0,26.11,21.17,47.28,47.28,47.28c26.11,0,47.27-21.17,47.27-47.28
		C192.18,118.86,171.02,97.7,144.91,97.7z"/>
	<path class="st0" d="M239.45,97.7c26.11,0,47.27-21.17,47.27-47.28S265.56,3.15,239.45,3.15c-26.11,0-47.28,21.17-47.28,47.28
		S213.34,97.7,239.45,97.7z"/>
	<path class="st0" d="M239.45,97.7v47.28h-47.28c0,26.11,21.17,47.28,47.28,47.28c26.11,0,47.27-21.17,47.27-47.28
		C286.72,118.86,265.56,97.7,239.45,97.7z"/>
	<path class="st0" d="M381.27,50.42c0-26.11-21.16-47.28-47.27-47.28v47.28V97.7C360.11,97.7,381.27,76.53,381.27,50.42z"/>
	<path class="st0" d="M334,97.7c-26.11,0-47.28,21.17-47.28,47.28c0,26.11,21.17,47.28,47.28,47.28s47.27-21.17,47.27-47.28
		C381.27,118.86,360.11,97.7,334,97.7z"/>
</g>
</svg>
